<svg xmlns="http://www.w3.org/2000/svg" viewBox="0 0 640 400" role="img" aria-labelledby="t d"><title id="t">市政資料アーカイブ索引カード</title><desc id="d">古い紙の索引カードと保存番号を模したアーカイブ用グラフィック。</desc><rect width="640" height="400" fill="#c7c0ad"/><g transform="translate(55 45) rotate(-2 265 150)"><rect x="0" y="0" width="530" height="300" fill="#eee7d4" stroke="#837b68" stroke-width="2"/><path d="M0 56H530M0 104H530M0 152H530M0 200H530M0 248H530" stroke="#aaa18d"/><path d="M112 0V300" stroke="#a06e63" stroke-width="2" opacity=".6"/><g font-family="monospace" fill="#4d5754"><text x="20" y="34" font-size="18">NAGISHIRO MUNICIPAL ARCHIVE</text><text x="20" y="84" font-size="15">1998-08</text><text x="140" y="84" font-size="15">月次防災資料</text><text x="20" y="132" font-size="15">1998-08-14</text><text x="140" y="132" font-size="15">臨時放送関連</text><text x="20" y="180" font-size="15">1998-08-19</text><text x="140" y="180" font-size="15">庁内文書索引</text><text x="20" y="228" font-size="15">DOC-214</text><text x="140" y="228" font-size="15">保存</text><text x="20" y="276" font-size="15">DOC-216</text><text x="140" y="276" font-size="15">保存</text></g><rect x="386" y="210" width="110" height="50" fill="none" stroke="#8c3d2f" stroke-width="3" transform="rotate(-5 441 235)"/><text x="441" y="240" text-anchor="middle" font-family="serif" font-size="18" fill="#8c3d2f" transform="rotate(-5 441 235)">照合済</text></g><path d="M70 338h500" stroke="#786f5e" stroke-dasharray="2 5"/><text x="320" y="370" text-anchor="middle" font-family="monospace" font-size="12" fill="#615d54">PUBLIC MIRROR / INDEX COPY</text></svg>