<svg xmlns="http://www.w3.org/2000/svg" viewBox="0 0 120 120" role="img" aria-labelledby="t d"><title id="t">凪代市章風アーカイブマーク</title><desc id="d">架空自治体・凪代市の保存サイト用に作られた円形の市章風マーク。</desc><rect width="120" height="120" fill="#f2ede1"/><circle cx="60" cy="60" r="50" fill="none" stroke="#4e625f" stroke-width="2"/><circle cx="60" cy="60" r="41" fill="none" stroke="#8c3d2f" stroke-width="1" opacity=".65"/><g fill="none" stroke="#2f5f63" stroke-width="9" stroke-linecap="round"><path d="M29 58c10-17 21-26 31-26 11 0 22 9 31 26"/><path d="M29 66c10 17 21 26 31 26 11 0 22-9 31-26"/></g><path d="M60 31v58M31 60h58" stroke="#8c3d2f" stroke-width="3" opacity=".75"/><circle cx="60" cy="60" r="13" fill="#f2ede1" stroke="#4e625f" stroke-width="2"/><path d="M50 61c7-8 13-8 20 0M50 68c7-8 13-8 20 0" fill="none" stroke="#2f5f63" stroke-width="2.5"/><text x="60" y="111" text-anchor="middle" font-size="7" font-family="serif" fill="#5d6763" letter-spacing="2">NAGISHIRO</text></svg>